# xmcd
# Track frame offsets:
# 150
# 18234
# 36243
# 53427
# 70760
# 85923
# 103556
# 118415
# 135521
# 151955
# 166516
# 180999
# 195182
# 211614
# 225873
# 242756
# 258291
#
# Disc length: 3614 seconds
# Revision: 0
# Processed by: cddbd v1.5.1PL0 Copyright (c) Steve Scherf et al.
# Submitted via: VisiTrax 2.9.10.228 - For more info visit www.synapsa.com
#
DISCID=c10e1c11
DTITLE=Messina, Jo Dee - Country Karaoke Classics  CKC010
DYEAR=1900
DGENRE=Karaoke
TTITLE0=Messina, Jo Dee - Lesson In Leavin'
TTITLE1=Messina, Jo Dee - Burn
TTITLE2=Messina, Jo Dee - Downtime
TTITLE3=Messina, Jo Dee - Because You Loved Me
TTITLE4=Messina, Jo Dee - That's The Way It Is
TTITLE5=Messina, Jo Dee - Bring On The Rain
TTITLE6=Messina, Jo Dee - Dare To Dream
TTITLE7=Messina, Jo Dee - Was That My Life
TTITLE8=Messina, Jo Dee - I Wish
TTITLE9=Clark, Terri - Poor Poor Pitiful Me
TTITLE10=Clark, Terri - Better Things To Do
TTITLE11=Clark, Terri - Emotional Girl
TTITLE12=Clark, Terri - No Fear
TTITLE13=Clark, Terri - Little Gasoline, A
TTITLE14=Clark, Terri - Three Mississippi
TTITLE15=Clark, Terri - I Just Wanna Be Mad
TTITLE16=Clark, Terri - I Wanna Do It All
EXTD=
EXTT0=
EXTT1=
EXTT2=
EXTT3=
EXTT4=
EXTT5=
EXTT6=
EXTT7=
EXTT8=
EXTT9=
EXTT10=
EXTT11=
EXTT12=
EXTT13=
EXTT14=
EXTT15=
EXTT16=
PLAYORDER=
